<svg width="42" height="42" viewBox="0 0 42 42" fill="none" xmlns="http://www.w3.org/2000/svg">
<g clip-path="url(#clip0_150_4659)">
<path d="M20.2144 4.97137C13.4961 4.3084 6.9812 5.79751 2.56815 7.32838C0.654689 7.99218 -0.404336 10.0386 0.144454 11.9882C0.744842 14.1217 3.02253 15.3058 5.11219 14.5668C11.7714 12.2123 29.1625 8.81988 40.2801 15.0539C40.2801 15.0539 35.6004 6.48978 20.2144 4.97137Z" fill="#B67659"/>
<path d="M39.3303 23.8328C38.5804 25.3517 36.8242 26.0492 35.2616 25.5213C35.1424 25.3957 35.0086 25.2571 34.8611 25.1076C35.2018 24.9657 35.5327 24.7933 35.85 24.5901C37.2726 23.6797 38.2554 22.2699 38.6177 20.6203L35.7099 19.9819C35.5182 20.8548 34.9981 21.6008 34.2453 22.0824C33.5903 22.5016 32.8275 22.6767 32.0654 22.5889C31.9447 22.4922 31.8216 22.3949 31.6962 22.2974C33.3632 21.169 34.4674 19.2667 34.4838 17.1063L31.5068 17.0836C31.4947 18.6847 30.3539 20.0179 28.8467 20.3331C25.5422 18.3438 22.1796 17.3027 19.0041 17.3027C15.1127 17.3027 10.9404 18.8653 6.93839 21.8217C3.96811 24.0158 2.12708 26.1991 2.05013 26.2911L1.25 27.2466L2.05013 28.2021C2.12708 28.2939 3.96819 30.4773 6.93839 32.6715C10.9404 35.6278 15.1127 37.1904 19.0041 37.1904C22.8955 37.1904 27.0678 35.6278 31.0697 32.6715C33.299 31.0247 34.8922 29.3841 35.5808 28.6291C35.8273 28.6583 36.0742 28.6736 36.32 28.6736C38.6522 28.6736 40.8993 27.3792 41.9997 25.1505L39.3303 23.8328ZM15.5307 33.7334C10.8025 32.4549 6.90205 28.9491 5.22172 27.2453C6.90082 25.5378 10.7986 22.0281 15.5414 20.7549C13.224 21.9935 11.6467 24.4356 11.6467 27.2469C11.6467 30.0539 13.219 32.4929 15.5307 33.7334ZM19.0039 28.9569C18.0595 28.9569 17.2938 28.1913 17.2938 27.2468C17.2938 26.3023 18.0595 25.5367 19.0039 25.5367C19.9483 25.5367 20.7139 26.3023 20.7139 27.2468C20.7139 28.1913 19.9483 28.9569 19.0039 28.9569ZM22.4665 33.7389C24.784 32.5003 26.3612 30.0581 26.3612 27.2468C26.3612 24.4399 24.7889 22.001 22.4775 20.7604C27.2049 22.0389 31.1049 25.5438 32.7862 27.2484C31.1071 28.956 27.2093 32.4658 22.4665 33.7389Z" fill="black"/>
</g>
<defs>
<clipPath id="clip0_150_4659">
<rect width="42" height="42" fill="white"/>
</clipPath>
</defs>
</svg>
