<svg width="42" height="42" viewBox="0 0 42 42" fill="none" xmlns="http://www.w3.org/2000/svg">
<g clip-path="url(#clip0_150_4627)">
<path d="M41.8701 15.543C36.3228 4.44854 24.2066 4.17973 18.5763 5.58729L0.933664 9.97739C0.22976 10.1525 -0.169318 10.8951 0.0692268 11.5775L1.83124 16.6179C2.47649 18.5373 4.55449 19.5909 6.49738 18.9433C6.50887 18.9395 6.52027 18.9355 6.53167 18.9313L19.7141 14.1001C26.4872 11.6177 34.2724 12.7586 40.0311 17.0777C40.4875 17.4201 41.1197 17.4036 41.5578 17.038C41.996 16.6723 42.1253 16.0534 41.8701 15.543Z" fill="#3E3E3E"/>
<path d="M37.4882 22.4916C35.5473 23.6529 32.2622 27.2831 26.6955 28.8712C26.6828 28.874 26.67 28.8756 26.6573 28.8788C26.6134 28.8898 26.5709 28.9032 26.5294 28.9186C24.9376 29.3573 23.1615 29.6284 21.1796 29.6284C14.3848 29.6284 10.6167 26.469 6.78488 24.8364C6.17703 24.5326 5.43794 24.7789 5.13402 25.3867C4.83009 25.9945 5.07651 26.7336 5.68428 27.0375C6.28236 27.29 6.89505 27.5927 7.53349 27.9226L5.5358 30.9192C5.15887 31.4846 5.31169 32.2486 5.87713 32.6255C6.44084 33.0014 7.20529 32.8514 7.58345 32.2843L9.72715 29.0687C10.8962 29.6671 12.1697 30.2721 13.5987 30.7821L12.6809 34.4531C12.5161 35.1124 12.9169 35.7805 13.5762 35.9453C14.2337 36.1095 14.903 35.7112 15.0683 35.05L15.9594 31.4855C17.1265 31.7644 18.3909 31.9649 19.7705 32.0474V35.7806C19.7705 36.4602 20.3205 37.0111 21 37.0111C21.6796 37.0111 22.2305 36.4602 22.2305 35.7806V32.0636C23.5192 32.0031 24.8004 31.8317 26.058 31.555L26.9541 35.1392C27.12 35.8025 27.791 36.1983 28.4462 36.0344C29.1055 35.8696 29.5063 35.2016 29.3415 34.5423L28.4307 30.8993C29.7837 30.4461 31.0944 29.8672 32.3413 29.1712L34.4256 32.2977C34.8043 32.8657 35.5691 33.0142 36.1319 32.639C36.6974 32.262 36.8502 31.4981 36.4733 30.9326L34.4227 27.8568C34.9052 27.5139 34.7689 27.6034 38.9648 24.4605C39.5084 24.0528 39.6186 23.2815 39.2109 22.7379C38.8032 22.1941 38.032 22.0839 37.4882 22.4916Z" fill="#B67659"/>
</g>
<defs>
<clipPath id="clip0_150_4627">
<rect width="42" height="42" fill="white"/>
</clipPath>
</defs>
</svg>
