<svg width="42" height="42" viewBox="0 0 42 42" fill="none" xmlns="http://www.w3.org/2000/svg">
<g clip-path="url(#clip0_150_4650)">
<path d="M27.4805 33.7148H1.23047C0.550922 33.7148 0 34.2658 0 34.9453C0 36.984 1.65268 38.6367 3.69141 38.6367H25.0195C27.0583 38.6367 28.7109 36.984 28.7109 34.9453C28.7109 34.2658 28.16 33.7148 27.4805 33.7148Z" fill="#B67659"/>
<path d="M41.3957 5.47729C36.6259 2.65861 31.7886 2.65861 27.0187 5.47729C26.4494 5.8137 26.2478 6.54 26.5623 7.12177L30.2976 14.0313H38.1169L41.8522 7.12177C42.1666 6.54 41.965 5.8137 41.3957 5.47729Z" fill="white"/>
<path d="M31.1309 16.4883H37.2832V20.1797H31.1309V16.4883Z" fill="#B67659"/>
<path d="M31.1309 35.5605C31.1309 37.2595 32.5081 38.6367 34.207 38.6367C35.906 38.6367 37.2832 37.2595 37.2832 35.5605V22.6406H31.1309V35.5605Z" fill="white"/>
<path d="M21.026 12.6888C19.2443 10.907 16.8753 9.92578 14.3555 9.92578C11.8356 9.92578 9.46665 10.907 7.68493 12.6888C5.90313 14.4706 4.92188 16.8395 4.92188 19.3594C4.92188 21.8792 5.90313 24.2482 7.68493 26.0299C9.46665 27.8117 11.8356 28.793 14.3555 28.793C16.8753 28.793 19.2443 27.8117 21.026 26.0299C22.8078 24.2482 23.7891 21.8792 23.7891 19.3594C23.7891 16.8395 22.8078 14.4706 21.026 12.6888ZM9.71513 21.7499C9.40021 21.7499 9.08529 21.6298 8.8451 21.3895C8.36456 20.9089 8.36456 20.1299 8.8451 19.6494L14.6455 13.8489C15.126 13.3684 15.9051 13.3684 16.3857 13.8489C16.8662 14.3295 16.8662 15.1085 16.3857 15.5891L10.5852 21.3895C10.3449 21.6298 10.03 21.7499 9.71513 21.7499ZM19.8659 19.0693L14.0655 24.8697C13.8252 25.11 13.5103 25.2302 13.1955 25.2302C12.8806 25.2302 12.5656 25.1101 12.3254 24.8697C11.8449 24.3892 11.8449 23.6102 12.3254 23.1296L18.1259 17.3292C18.6063 16.8486 19.3855 16.8486 19.866 17.3292C20.3465 17.8097 20.3465 18.5888 19.8659 19.0693Z" fill="white"/>
<path d="M14.3555 5.00391C6.43986 5.00391 0 11.4438 0 19.3594C0 24.3029 2.51188 28.6707 6.32625 31.2539H14.3555C7.78632 31.2539 2.46094 25.9285 2.46094 19.3594C2.46094 12.7902 7.78632 7.46484 14.3555 7.46484C20.9246 7.46484 26.25 12.7902 26.25 19.3594C26.25 25.9285 20.9246 31.2539 14.3555 31.2539H22.3847C26.1991 28.6707 28.7109 24.3029 28.7109 19.3594C28.7109 11.4438 22.2711 5.00391 14.3555 5.00391Z" fill="white"/>
</g>
<defs>
<clipPath id="clip0_150_4650">
<rect width="42" height="42" fill="white"/>
</clipPath>
</defs>
</svg>
