<svg width="42" height="42" viewBox="0 0 42 42" fill="none" xmlns="http://www.w3.org/2000/svg">
<g clip-path="url(#clip0_150_4668)">
<rect x="8" y="17" width="25" height="7" fill="#B67659"/>
<path d="M20.8293 31.4891L21.1705 31.5062C32.5523 31.5062 31.1868 24.1083 41.9998 19.3276C35.6262 19.3276 28.9105 10.4937 25.1543 10.4937C21.398 10.4937 21.1705 14.2941 21.1705 14.2941L21.1032 14.6218C21.1032 14.6218 20.6019 10.4944 16.8456 10.4944C13.0894 10.4944 6.37366 19.2932 0 19.2932C10.8132 24.0738 9.44684 31.4891 20.8293 31.4891ZM32.2972 19.5274C27.8585 20.6087 26.4069 23.0562 21.1855 23.0562C16.1916 23.0562 11.8382 19.5274 10.0739 19.5274C10.0731 19.5274 27.1746 19.7265 32.2972 19.5274Z" fill="black"/>
</g>
<defs>
<clipPath id="clip0_150_4668">
<rect width="41.9999" height="42" fill="white"/>
</clipPath>
</defs>
</svg>
